<?xml version="1.0" encoding="utf-8"?>
<svg id="master-artboard" viewBox="0 0 1400 924.364013671875" version="1.1" xmlns="http://www.w3.org/2000/svg" x="0px" y="0px" style="enable-background:new 0 0 1400 980;" width="1400px" height="924.364013671875px"><rect id="ee-background" x="0" y="0" width="1400" height="924.364013671875" style="fill: white; fill-opacity: 0; pointer-events: none;"/>























<g transform="matrix(1.0265100002288818, 0, 0, 1.0265100002288818, -10.84965261648631, -14.420687411213692)">
	<g>
		<path class="st2" d="M1400,883.5V72.2c0,0-14.2-5-21.5-12.7c-7.2-7.8-9.9-5.2-13.8-7.1c-3.9-1.9-15.8-1.9-18.4-3.9&#10;&#9;&#9;&#9;c-2.6-1.9-1.3-3.9-5.9-12.3c-4.6-8.4,0-7.8,0-7.8l7.9-9.1h-48c0,0-71,2.6-73,4.5c-2,1.9-22.4,0-22.4,0L1191,27&#10;&#9;&#9;&#9;c0,0,5.9,7.1,9.2,11.7c3.3,4.5-2,22.7-2,22.7s-16.4,0-21.7-0.6c-5.3-0.6-9.9-1.3-15.1-2.6c-5.3-1.3-1.3,3.2-1.3,3.2L1143,64&#10;&#9;&#9;&#9;l-3.3-3.9c0,0-3.3-9.1-3.3-13c0-3.9,0-8.4,0-8.4s13.8-1.9,16.4-3.2c2.6-1.3,1.3-6.5,1.3-6.5l-8.5-1.3c0,0-41.4,0-45.4,0&#10;&#9;&#9;&#9;c-3.9,0-48.7,0-48.7,0l-25.7,4.2l5.9,6.8l1.3,12.3l3.3,17.5H1020l-2.6-3.2l-1.3-11.7l-17.8-1.3l-5.3,0.6c0,0,0,10.4,0,12.3&#10;&#9;&#9;&#9;c0,1.9-4.6,3.9-4.6,3.9h-4.6h-12.5l-3.3-12.3l-11.8-3.2l-2,14.9l-17.1,1.9l-5.9-5.2c0,0,0,0,0-1.9c0-1.9,0-8.4,0-8.4l-3.9-12.3&#10;&#9;&#9;&#9;l-18.4,1.9c0,0,0,0,0,3.9c0,3.9,0,14.9,0,14.9l-3.3,10.4c0,0-4.6,1.3-6.6,1.3c-2,0-4.6-2.6-4.6-2.6s0-4.5-0.7-6.5&#10;&#9;&#9;&#9;c-0.7-1.9-1.3-7.1-1.3-11c0-3.9-2.6-11.7-2.6-11.7s9.9-6.5,9.9-11.4c0-3.3,0-4,0-4.2l-3.3-1.3L881.2,29h-9.5&#10;&#9;&#9;&#9;c0,0-19.4,1.9-22.7,2.9c-3.3,0.9-20.4-8.1-20.4-8.1s0,20.7,0.7,27.9c0.7,7.1,3.3,16.8,3.3,18.8c0,1.9-15.4,7.1-15.4,7.1l-8.9-1.3&#10;&#9;&#9;&#9;l-5.3-5.2V64c0,0-2-10.4-2-12.3c0-1.9-3.3-5.2-5.3-7.8c-2-2.6-9.9-8.4-9.9-8.4l-7.2-7.1h-73.4h-8.9h-73.4l-7.2,7.1&#10;&#9;&#9;&#9;c0,0-7.9,5.8-9.9,8.4c-2,2.6-5.3,5.8-5.3,7.8c0,1.9-2,12.3-2,12.3v7.1l-5.3,5.2l-8.9,1.3c0,0-15.4-5.2-15.4-7.1&#10;&#9;&#9;&#9;c0-1.9,2.6-11.7,3.3-18.8c0.7-7.1,0.7-27.9,0.7-27.9s-17.1,9-20.4,8.1c-3.3-0.9-22.7-2.9-22.7-2.9h-9.5l-15.1-2.6l-3.3,1.3&#10;&#9;&#9;&#9;c0,0.1,0,0.8,0,4.2c0,4.9,9.9,11.4,9.9,11.4s-2.6,7.8-2.6,11.7c0,3.9-0.7,9.1-1.3,11c-0.7,1.9-0.7,6.5-0.7,6.5s-2.6,2.6-4.6,2.6&#10;&#9;&#9;&#9;c-2,0-6.6-1.3-6.6-1.3l-3.3-10.4c0,0,0-11,0-14.9c0-3.9,0-3.9,0-3.9l-18.4-1.9l-3.9,12.3c0,0,0,6.5,0,8.4c0,1.9,0,1.9,0,1.9&#10;&#9;&#9;&#9;l-5.9,5.2l-17.1-1.9l-2-14.9l-11.8,3.2l-3.3,12.3h-12.5H413c0,0-4.6-1.9-4.6-3.9c0-1.9,0-12.3,0-12.3l-5.3-0.6l-17.8,1.3&#10;&#9;&#9;&#9;l-1.3,11.7l-2.6,3.2H365l3.3-17.5l1.3-12.3l5.9-6.8l-25.7-4.2c0,0-44.7,0-48.7,0c-3.9,0-45.4,0-45.4,0l-8.6,1.3&#10;&#9;&#9;&#9;c0,0-1.3,5.2,1.3,6.5c2.6,1.3,16.4,3.2,16.4,3.2s0,4.5,0,8.4c0,3.9-3.3,13-3.3,13l-3.3,3.9l-17.1-2.6c0,0,3.9-4.5-1.3-3.2&#10;&#9;&#9;&#9;c-5.3,1.3-9.9,1.9-15.1,2.6c-5.3,0.6-21.7,0.6-21.7,0.6s-5.3-18.1-2-22.7c3.3-4.5,9.2-11.7,9.2-11.7l-13.8-3.2&#10;&#9;&#9;&#9;c0,0-20.4,1.9-22.4,0c-2-1.9-73-4.5-73-4.5h-48l7.9,9.1c0,0,4.6-0.6,0,7.8c-4.6,8.4-3.3,10.4-5.9,12.3c-2.6,1.9-14.5,1.9-18.4,3.9&#10;&#9;&#9;&#9;c-3.9,1.9-6.6-0.6-13.8,7.1C15.7,67.2,1.5,72.2,1.5,72.2v811.4c0,0-12.7,96.7,123.7,96.7c136.4,0,692,0,692,0s322.8,0,459.2,0&#10;&#9;&#9;&#9;C1412.7,980.3,1400,883.5,1400,883.5z M102.3,50.9c-0.5,3.6-3.2,8-3.2,8s-14.3,1.7-14.8,0c-0.5-1.7-2.5-4.2-2.1-7.7&#10;&#9;&#9;&#9;c0.5-3.4,1.3-6.9,2.7-10.2c1.4-3.3,2.1-7.2,3.3-10.2c1.3-3,1.1-6.6,6.8-5.2c5.7,1.4,6.8-1.4,7.1,6.2&#10;&#9;&#9;&#9;C102.6,39.4,102.7,47.3,102.3,50.9z M144,49.9c0,0-0.5,6.7-1,7.7c-0.5,0.9-8.6,3.1-8.6,3.1s-8.6-4.4-8.6-6.9&#10;&#9;&#9;&#9;c0-2.5-2.1-12.8-1.7-15.6c0.3-2.8,1.1-7.7,1.1-7.7l13.6-1.4c0,0,7.3,3.1,7.3,3.6C146.2,33.2,144,49.9,144,49.9z M189.4,53.5&#10;&#9;&#9;&#9;c-1,1.3-13.8,8.3-13.8,8.3s-5.6-12.3-5.7-14.7c-0.2-2.3-4.8-13-2.4-14.2c2.4-1.3,9.5-2.5,10.2-2.5c0.6,0,7.5,2.7,9.7,6.4&#10;&#9;&#9;&#9;c2.2,3.8,4.8,8.6,4.8,10.6C192.1,49.4,190.3,52.3,189.4,53.5z M295,67.6c0,0-7.9-4.1-7.9-5.8c0-1.7-0.3-5.9,0.8-10.8&#10;&#9;&#9;&#9;c1.1-4.8,0.5-16.4,6.5-16.4c0,0,7.9-1.6,9-1.4c1.1,0.2,4.9,2.8,4.9,5.2c0,2.3-0.2,9.5,0,11.6c0.2,2,1.4,16.1,1.4,16.1L295,67.6z&#10;&#9;&#9;&#9; M349.1,55.2c0,3.8,0,11.6,0,11.6s-14.4,0-14.9,0c-0.5,0-8.6-2.7-8.6-6.6c0-3.9,0.5-11.9,0-14.1c-0.5-2.3,4.8-9,4.8-9&#10;&#9;&#9;&#9;s10.9-1.3,14.3,0c3.3,1.3,4.4,4.7,4.4,6.9S349.1,51.5,349.1,55.2z M556.3,54.4c-0.3,3.4-1.7,12.8-2.4,15.1c-0.7,2.4-6.5,4-6.5,4&#10;&#9;&#9;&#9;s-16.4,0-16-2c0.3-2,3.8-22.8,3.8-22.8l3.4-4.7c0,0,13.6-3.7,15,0C555,47.6,556.7,51,556.3,54.4z M631.7,65.1&#10;&#9;&#9;&#9;c1.4,1.3-1.7,5-3.4,6.7c-1.7,1.7-11.6,1.7-11.6,1.7s-3.8-4-3.8-6.7c0-2.7,6.5-21.2,6.5-21.2h12.3c0,0-1.4,7.1,0,10.4&#10;&#9;&#9;&#9;C633,59.4,630.3,63.8,631.7,65.1z M664.4,61.1c-1.7,3.7-1.7,4.4-1.7,8.4c0,4-1,6.7-1,6.7h-15.3c0,0,0.3-7.5,0-8.6&#10;&#9;&#9;&#9;c-0.3-1.1-3.1-17.2-3.1-17.2l3.1-4.8h15.3c0,0,2.4,2.5,2.7,4.8C664.7,52.7,666.1,57.4,664.4,61.1z M689.1,64.4h-18.9l11.3-18.8&#10;&#9;&#9;&#9;c0,0,6.8-4,7.5,0c0.7,4-1,8.4,0,10.4C690,58,689.1,64.4,689.1,64.4z M712.4,64.4c0,0-0.9-6.4,0.2-8.4c1-2-0.7-6.4,0-10.4&#10;&#9;&#9;&#9;c0.7-4,7.5,0,7.5,0l11.3,18.8H712.4z M755.1,67.6c-0.3,1.1,0,8.6,0,8.6h-15.3c0,0-1-2.7-1-6.7c0-4,0-4.7-1.7-8.4&#10;&#9;&#9;&#9;c-1.7-3.7-0.3-8.4,0-10.7c0.3-2.3,2.7-4.8,2.7-4.8h15.3l3.1,4.8C758.2,50.4,755.5,66.4,755.1,67.6z M784.8,73.5&#10;&#9;&#9;&#9;c0,0-9.9,0-11.6-1.7c-1.7-1.7-4.8-5.4-3.4-6.7c1.4-1.3-1.4-5.7,0-9.1c1.4-3.4,0-10.4,0-10.4h12.3c0,0,6.5,18.5,6.5,21.2&#10;&#9;&#9;&#9;C788.6,69.5,784.8,73.5,784.8,73.5z M854,73.5c0,0-5.8-1.7-6.5-4c-0.7-2.4-2-11.8-2.4-15.1c-0.3-3.4,1.4-6.7,2.7-10.4&#10;&#9;&#9;&#9;c1.4-3.7,15,0,15,0l3.4,4.7c0,0,3.4,20.8,3.8,22.8C870.4,73.5,854,73.5,854,73.5z M1075.8,46.1c-0.5,2.3,0,10.2,0,14.1&#10;&#9;&#9;&#9;c0,3.9-8.1,6.6-8.6,6.6c-0.5,0-14.9,0-14.9,0s0-7.8,0-11.6c0-3.8,0-9.1,0-11.3s1.1-5.6,4.4-6.9c3.3-1.3,14.3,0,14.3,0&#10;&#9;&#9;&#9;S1076.3,43.8,1075.8,46.1z M1114.4,61.8c0,1.7-7.9,5.8-7.9,5.8l-14.8-1.6c0,0,1.3-14.1,1.4-16.1c0.2-2,0-9.2,0-11.6&#10;&#9;&#9;&#9;c0-2.3,3.8-5,4.9-5.2c1.1-0.2,9,1.4,9,1.4c6,0,5.4,11.6,6.5,16.4C1114.7,55.9,1114.4,60.1,1114.4,61.8z M1231.6,47.1&#10;&#9;&#9;&#9;c-0.2,2.3-5.7,14.7-5.7,14.7s-12.8-7-13.8-8.3c-1-1.3-2.7-4.1-2.7-6.1c0-2,2.5-6.9,4.8-10.6c2.2-3.8,9-6.4,9.7-6.4&#10;&#9;&#9;&#9;c0.6,0,7.8,1.3,10.2,2.5C1236.4,34.1,1231.8,44.8,1231.6,47.1z M1275.6,53.8c0,2.5-8.6,6.9-8.6,6.9s-8.1-2.2-8.6-3.1&#10;&#9;&#9;&#9;c-0.5-0.9-1-7.7-1-7.7s-2.2-16.7-2.2-17.2c0-0.5,7.3-3.6,7.3-3.6l13.6,1.4c0,0,0.8,4.8,1.1,7.7C1277.6,41,1275.6,51.3,1275.6,53.8&#10;&#9;&#9;&#9;z M1317.1,58.8c-0.5,1.7-14.8,0-14.8,0s-2.7-4.4-3.2-8c-0.5-3.6-0.3-11.4,0-19c0.3-7.6,1.4-4.8,7.1-6.2c5.7-1.4,5.6,2.2,6.8,5.2&#10;&#9;&#9;&#9;c1.3,3,1.9,6.9,3.3,10.2c1.4,3.3,2.2,6.7,2.7,10.2C1319.7,54.6,1317.6,57.1,1317.1,58.8z" style="fill: rgb(249, 248, 209);"/>
	</g>
</g></svg>